<svg width="1500" height="1125" viewBox="0 0 1500 1125" fill="none" xmlns="http://www.w3.org/2000/svg">
<rect width="1500" height="1125" rx="50" fill="white"/>
<path d="M508.425 706.221C508.266 706.107 518.427 687.242 529.591 683.756L535.47 695.74C535.47 695.74 520.296 705.036 514.964 710.436L508.425 706.221Z" fill="#E3F0FF"/>
<path d="M584.067 639.419C579.055 639.692 569.235 634.52 565.202 633.244C559.575 631.467 548.616 645.958 540.14 653.362C531.664 660.767 514.349 659.286 494.823 671.589C480.971 680.293 475.753 704.58 474.113 719.003C472.893 717.786 471.78 716.468 470.786 715.061C460.83 701.14 471.242 681.888 482.725 667.967C494.208 654.046 504.187 652.018 515.465 649.74C524.331 648.157 532.676 644.435 539.776 638.895C545.54 634.475 552.603 624.085 562.126 624.974C566.671 625.454 571.035 627.017 574.852 629.53C578.67 632.043 581.829 635.434 584.067 639.419Z" fill="#E3F0FF"/>
<path d="M953.279 953.266C943.665 969.829 908.509 980.128 899.874 980.789C891.239 981.449 881.966 984.434 863.739 998.355C860.132 1001.15 856.038 1003.26 851.664 1004.57C848.793 1002.68 844.555 1002.93 840.272 1004.57C833.095 1001.59 823.115 996.373 823.936 990.654C825.189 981.814 839.725 975.548 844.942 974.887C850.16 974.227 875.906 966.822 887.685 953.311C898.348 941.031 943.619 915.422 956.401 916.196C961.527 927.019 959.431 942.671 953.279 953.266Z" fill="#E3F0FF"/>
<path d="M933.685 810.365C923.592 839.278 908.896 876.142 901.674 893.914C878.594 893.299 869.412 897.422 868.523 903.232C865.128 925.401 857.633 932.851 844.213 932.669C841.547 932.669 832.821 937.704 830.656 938.091C832.935 928.408 839.77 909.794 845.01 903.232C855.217 890.359 872.351 816.016 872.351 816.016C872.351 816.016 913.02 804.237 933.685 810.365Z" fill="#327BED"/>
<path d="M890.601 212.792C887.873 217.595 884.559 222.042 880.735 226.029C879.826 225.259 879.095 224.299 878.595 223.217C878.096 222.134 877.838 220.956 877.842 219.764C877.842 217.564 878.716 215.455 880.271 213.899C881.826 212.344 883.936 211.47 886.135 211.47C887.721 211.461 889.275 211.921 890.601 212.792Z" fill="#E3F0FF"/>
<path d="M935.804 612.101C925.347 611.394 917.167 575.51 913.522 570.133C909.352 564.004 886.044 585.102 871.326 584.418C856.608 583.735 884.564 563.252 884.564 563.252C884.564 563.252 861.005 574.644 853.395 568.652C845.786 562.66 877.933 550.015 864.468 542.656C851.003 535.297 897.3 524.839 898.302 524.907C900.74 525.067 902.859 525.226 904.18 525.294C907.262 525.668 910.31 526.285 913.294 527.14C916.413 542.203 920.804 556.974 926.417 571.295C929.493 578.609 932.728 593.646 935.804 612.101Z" fill="#E3F0FF"/>
<path d="M851.64 612.237C851.64 612.237 868.797 616.042 864.468 624.973C860.139 633.905 841.433 629.986 840.294 629.781C841.616 630.965 868.409 654.843 857.564 661.222C846.719 667.602 830.52 644.476 830.474 647.848C830.429 651.22 833.117 676.533 824.983 680.156C820.814 657.987 813.979 622.125 813.979 622.125L807.577 622.718C803.925 627.981 800.541 633.426 797.438 639.031C796.572 635.682 797.164 633.358 784.861 634.474C772.558 635.591 759.366 628.254 775.907 617.409C792.448 606.564 866.427 585.375 882.809 593.896C899.19 602.417 851.64 612.237 851.64 612.237Z" fill="#E3F0FF"/>
<path d="M753.989 649.147C728.699 666.212 717.285 699.59 727.947 696.993C738.61 694.396 748.02 679.677 756.701 673.093C765.381 666.508 771.282 659.628 771.988 650.491C772.649 642.358 768.115 639.623 753.989 649.147Z" fill="#E3F0FF"/>
<path d="M779.097 575.1C771.031 574.234 748.02 579.656 770.462 589.203C792.904 598.749 825.143 591.208 826.988 587.198C828.834 583.188 832.684 579.998 818.832 578.084C804.979 576.17 779.097 575.1 779.097 575.1Z" fill="#E3F0FF"/>
<path d="M754.399 559.652C754.399 559.652 761.121 572.867 754.399 583.94C747.678 595.013 725.51 555.05 725.51 555.05C725.51 555.05 721.545 567.33 714.118 570.999C710.51 573.173 707.453 576.152 705.186 579.702C692.724 595.058 682.403 604.901 673.631 610.848C684.59 591.755 693.179 572.616 700.516 566.191C708.718 558.969 733.552 513.059 736.332 505.814C739.319 509.415 742.507 512.846 745.878 516.09C744.215 520.533 742.62 525.021 742.119 527.163C740.934 532.107 771.738 540.035 784.861 550.767C797.985 561.498 754.399 559.652 754.399 559.652Z" fill="#E3F0FF"/>
<path d="M929.127 159.045C925.026 168.409 916.482 170.437 907.027 171.166C887.342 172.647 870.573 153.486 863.966 143.825C860.252 138.38 859.272 140.818 859.249 141.684C858.611 161.642 846.923 170.3 835.577 178.707C836.466 173.74 831.02 167.11 827.717 165.629C827.126 154.002 828.325 142.353 831.271 131.089C836.192 111.472 849.133 117.669 851.776 116.94C854.419 116.211 856.538 111.882 856.834 109.353C857.131 106.824 855.262 93.4046 859.113 89.5997L859.386 89.3491C859.563 89.1745 859.777 89.0418 860.012 88.9607C860.247 88.8797 860.497 88.8524 860.744 88.8808C860.991 88.9092 861.229 88.9926 861.439 89.1249C861.65 89.2572 861.828 89.4351 861.961 89.6453C863.52 92.2185 864.521 95.0905 864.9 98.0753C865.242 99.9664 865.401 101.379 865.401 101.379L865.014 101.812L864.626 102.222C864.023 102.843 863.565 103.59 863.285 104.41C863.006 105.229 862.911 106.101 863.009 106.961C863.305 109.239 865.287 108.488 868.864 104.227C872.099 100.399 878.73 95.9564 880.757 96.5032C882.398 99.4196 875.585 103.521 871.439 107.257C870.596 108.282 869.935 110.834 877.978 112.406C882.277 113.439 886.326 115.322 889.887 117.944C893.448 120.565 896.448 123.873 898.711 127.671C899.747 129.832 901.039 131.859 902.561 133.709C900.716 134.78 896.501 138.448 900.989 141.091C904.27 143.005 909.761 140.339 912.381 138.038C912.905 138.038 913.475 138.038 914.067 138.038C919.666 138.411 924.944 140.78 928.945 144.714C928.252 147.344 927.01 149.798 925.3 151.913C926.491 152.679 927.467 153.736 928.137 154.984C928.806 156.231 929.147 157.629 929.127 159.045Z" fill="#327BED"/>
<path d="M730.749 359.679C716.828 372.916 703.409 386.222 698.852 392.761L694.295 400.644C685.82 390.027 673.083 373.121 672.787 372.415C672.526 371.947 672.32 371.45 672.172 370.934C671.511 366.377 671.215 350.178 683.564 357.811C690.978 362.458 696.839 369.208 700.401 377.2C700.401 377.2 723.185 358.107 724.096 358.107H724.324L730.749 359.679Z" fill="#E3F0FF"/>
<path d="M1204.06 304.52C1204.11 304.954 1204.04 305.392 1203.86 305.792C1203.69 306.192 1203.41 306.538 1203.06 306.798C1201.08 308.097 1189.59 300.874 1184.17 299.963C1178.75 299.052 1170.02 301.284 1163.3 298.163C1158.02 295.335 1152.92 292.193 1148.01 288.753C1148.01 288.753 1135.75 293.629 1133.23 294.677L1132.84 294.859C1125.09 298.527 1108.76 306.251 1091.37 314.339C1091.76 314.157 1099 304.155 1106.5 298.71C1114 293.264 1142.95 280.027 1148.29 280.186C1153.62 280.346 1161.96 292.718 1169.02 292.649C1175.33 292.763 1195.04 292.513 1204.06 304.52Z" fill="#E3F0FF"/>
<path d="M989.482 265.696C1002.63 271.756 1012.49 277.087 1013.75 281.302C1015.84 288.502 1004 294.79 999.575 286.406C995.155 278.022 1008.69 272.235 1019.78 270.594C1030.88 268.954 1111.81 258.746 1135.98 249.906C1160.16 241.066 1175.72 235.735 1181.98 232.477C1188.25 229.219 1209.32 215.981 1212.42 215.753" stroke="#327BED" stroke-linecap="round" stroke-linejoin="round"/>
<path d="M741.663 349.449C756.951 335.209 770.279 323.316 770.279 323.316" stroke="#FF523B" stroke-linecap="round" stroke-linejoin="round"/>
<path d="M693.885 286.315C709.719 272.645 736.786 249.861 750.343 240.429C764.765 230.495 786.205 226.28 796.867 224.708" stroke="#FF523B" stroke-linecap="round" stroke-linejoin="round"/>
<path d="M979.548 302.378C973.009 319.83 966.402 334.959 967.564 355.396C953.894 350.247 928.421 340.7 927.191 340.928C927.419 369.203 925.938 420.375 922.088 440.129C917.007 466.262 929.584 475.467 928.376 481.755C927.168 488.043 920.88 488.271 922.088 493.352C923.067 497.476 931.566 512.285 930.7 522.014C918.579 518.756 901.24 515.407 887.251 516.5C863.67 518.369 812.703 537.621 788.916 528.849C765.13 520.077 738.974 501.509 742.62 495.79C746.265 490.071 763.398 474.396 761.439 465.556C759.48 456.716 776.545 451.749 772.466 441.177C768.388 430.605 778.869 401.191 770.188 383.602C761.507 366.013 764.378 356.125 764.401 355.692C764.424 355.259 803.133 360.978 791.172 352.047C779.21 343.116 776.886 342.933 779.415 341.999C781.944 341.065 812.179 329.924 798.782 326.757C790.638 324.92 782.104 326.128 774.79 330.152C774.79 330.152 781.625 293.014 745.171 336.371C736.058 347.285 719.653 332.521 718.537 328.602C717.421 324.683 704.343 317.21 706.188 309.145C708.034 301.079 704.229 294.199 704.844 290.075C705.459 285.951 729.906 265.423 755.333 247.788C779.962 230.746 801.561 234.71 801.561 234.71C818.581 260.934 853.486 261.891 863.556 244.712C863.556 244.712 878.89 243.254 885.93 232.773C892.765 230.336 961.982 257.836 980.824 272.554C982.26 281.303 982.943 293.265 979.548 302.378Z" fill="#FF523B"/>
<path d="M763.945 965.409C763.95 980.299 758.536 994.681 748.715 1005.87C738.894 1017.06 725.336 1024.3 710.572 1026.22C695.808 1028.15 680.847 1024.64 668.482 1016.35C656.116 1008.05 647.192 995.544 643.373 981.153C652.554 991.416 664.923 998.288 678.487 1000.66C692.051 1003.04 706.019 1000.77 718.139 994.237C730.26 987.701 739.826 977.275 745.296 964.638C750.767 952.001 751.822 937.891 748.293 924.581C758.364 935.796 763.938 950.336 763.945 965.409Z" fill="#E3F0FF"/>
<path d="M682.015 755.502C673.311 763.636 653.398 774.025 638.725 772.362C633.549 772.032 628.516 770.528 624.007 767.965C625.074 761.677 628.002 755.854 632.411 751.247C636.821 746.64 642.51 743.46 648.744 742.118C654.979 740.777 661.473 741.335 667.387 743.721C673.301 746.106 678.365 750.21 681.924 755.502H682.015Z" fill="#E3F0FF"/>
<path d="M944.781 770.859C928.797 767.644 912.375 767.235 896.251 769.651C894.137 762.471 894.071 754.842 896.062 747.626C898.052 740.41 902.019 733.894 907.515 728.813C913.011 723.731 919.818 720.286 927.167 718.867C934.517 717.448 942.116 718.11 949.11 720.78C949.11 720.962 949.11 721.122 949.11 721.304C949.725 728.116 949.201 745.933 944.781 770.859Z" fill="#E3F0FF"/>
<path d="M670.669 350.269C670.675 358.018 667.627 365.456 662.184 370.971C656.742 376.486 649.344 379.633 641.596 379.729C643.725 375.318 645.626 370.801 647.292 366.195C649.275 360.294 657.955 347.307 666.545 335.278C669.251 339.81 670.676 344.991 670.669 350.269Z" fill="#E3F0FF"/>
<path d="M1053.34 332.202C1047.38 334.913 1042.18 337.214 1038.31 338.9C1017.98 347.74 1005.07 349.449 990.598 345.371C991.175 338.18 994.064 331.369 998.831 325.956C1003.6 320.542 1009.99 316.816 1017.05 315.334C1024.11 313.853 1031.46 314.695 1038 317.735C1044.54 320.775 1049.93 325.85 1053.34 332.202Z" fill="#E3F0FF"/>
<path d="M1183.44 239.722C1192.03 235.667 1222.74 226.302 1224.16 226.302" stroke="#327BED" stroke-linecap="round" stroke-linejoin="round"/>
<path d="M1190.09 247.172C1202.81 244.689 1237.94 245.099 1237.94 245.099" stroke="#327BED" stroke-linecap="round" stroke-linejoin="round"/>
<path d="M1190.09 258.086C1206.14 257.563 1222.13 255.896 1237.94 253.096" stroke="#327BED" stroke-linecap="round" stroke-linejoin="round"/>
<path d="M1146.08 287.819C1146.69 288.138 1147.33 288.502 1148.04 288.935C1152.94 292.375 1158.04 295.518 1163.32 298.345C1170.04 301.466 1178.77 299.325 1184.19 300.145C1189.62 300.965 1201.1 308.187 1203.08 306.98C1203.43 306.72 1203.71 306.374 1203.88 305.974C1204.06 305.574 1204.13 305.136 1204.08 304.702C1203.51 301.499 1202.08 298.51 1199.96 296.044C1195.68 290.143 1184.67 286.042 1179.75 283.74C1174.83 281.439 1174.99 276.336 1176.95 274.855C1178.91 273.374 1232.34 268.954 1236.19 267.131C1240.04 265.308 1243.73 262.871 1240.95 260.296C1238.17 257.721 1211.19 258.473 1201.85 257.676" stroke="#327BED" stroke-linecap="round" stroke-linejoin="round"/>
<path d="M982.328 342.454C985.028 343.555 987.79 344.498 990.599 345.28C1005.07 349.358 1017.94 347.558 1038.31 338.809C1042.18 337.123 1047.42 334.822 1053.35 332.11C1064.42 327.052 1078.2 320.719 1091.37 314.521C1108.76 306.41 1125.09 298.709 1132.84 295.041L1133.23 294.859L1137.53 292.831" stroke="#327BED" stroke-linecap="round" stroke-linejoin="round"/>
<path d="M908.031 171.12C903.474 184.79 897.96 200.329 890.601 212.792C887.873 217.595 884.559 222.042 880.736 226.029C874.083 232.864 866.2 236.738 856.699 235.849" stroke="#327BED" stroke-linecap="round" stroke-linejoin="round"/>
<path d="M859.569 235.963C859.569 235.963 854.238 245.532 850.091 244.644C845.945 243.755 836.421 240.793 833.505 214.728C834.257 214.569 839.132 235.12 859.569 235.963Z" fill="#327BED" stroke="#327BED" stroke-linecap="round" stroke-linejoin="round"/>
<path d="M877.728 192.742C875.18 199.791 873.884 207.232 873.9 214.728C873.9 214.728 864.969 216.437 861.506 211.516" stroke="#327BED" stroke-linecap="round" stroke-linejoin="round"/>
<path d="M853.668 217.599C854.49 219.119 855.607 220.459 856.952 221.543C858.298 222.626 859.846 223.431 861.506 223.91" stroke="#327BED" stroke-linecap="round" stroke-linejoin="round"/>
<path d="M853.668 168.865C864.377 168.569 867.339 173.422 868.432 177.568" stroke="#327BED" stroke-linecap="round" stroke-linejoin="round"/>
<path d="M886.91 182.352C892.355 177.294 897.026 178.502 899.281 179.436" stroke="#327BED" stroke-linecap="round" stroke-linejoin="round"/>
<path d="M861.91 194.451C862.847 192.252 862.584 190.033 861.322 189.496C860.06 188.958 858.277 190.305 857.341 192.505C856.404 194.705 856.667 196.923 857.929 197.461C859.191 197.998 860.973 196.651 861.91 194.451Z" fill="#327BED"/>
<path d="M887.553 199.51C888.49 197.311 888.226 195.092 886.965 194.555C885.703 194.017 883.92 195.364 882.983 197.564C882.047 199.764 882.31 201.983 883.572 202.52C884.834 203.057 886.616 201.71 887.553 199.51Z" fill="#327BED"/>
<path d="M835.578 178.593C849.248 169.821 859.911 157.586 859.205 139.428" stroke="#327BED" stroke-linecap="round" stroke-linejoin="round"/>
<path d="M863.967 141.57C870.506 156.106 893.586 178.138 918.42 168.91C936.943 162.075 926.076 147.243 916.985 150.432" stroke="#327BED" stroke-linecap="round" stroke-linejoin="round"/>
<path d="M904.567 137.354C917.531 129.813 938.196 135.873 924.822 151.799" stroke="#327BED" stroke-linecap="round" stroke-linejoin="round"/>
<path d="M836.216 165.105C839.838 162.235 845.079 156.63 843.21 149.02" stroke="white" stroke-linecap="round" stroke-linejoin="round"/>
<path d="M880.872 140.089C885.566 152.46 891.922 155.536 899.395 153.508" stroke="white" stroke-linecap="round" stroke-linejoin="round"/>
<path d="M869.115 128.856C874.697 126.578 881.555 127.808 883.765 130.337" stroke="white" stroke-linecap="round" stroke-linejoin="round"/>
<path d="M866.382 121.907C869.116 119.378 875.495 117.578 878.184 119.264" stroke="white" stroke-linecap="round" stroke-linejoin="round"/>
<path d="M803.384 223.91C810.639 213.132 816.553 201.51 820.996 189.302C814.685 187.274 807.576 177.568 811.882 169.32C816.188 161.072 826.555 165.379 829.95 178.593" stroke="#327BED" stroke-linecap="round" stroke-linejoin="round"/>
<path d="M817.328 174.834C820.125 176.89 822.526 179.438 824.413 182.352" stroke="#327BED" stroke-linecap="round" stroke-linejoin="round"/>
<path d="M823.161 166.996C823.161 166.996 815.711 106.642 849.886 110.766C849.886 110.766 851.413 109.125 851.413 102.837C851.413 94.3615 858.089 87.4125 861.985 89.6225C865.881 91.8325 864.491 102.085 864.491 102.085" stroke="#327BED" stroke-linecap="round" stroke-linejoin="round"/>
<path d="M861.506 107.622C862.463 101.971 873.923 91.9464 879.391 95.2273C885.771 99.055 869.617 105.981 868.432 110.88" stroke="#327BED" stroke-linecap="round" stroke-linejoin="round"/>
<path d="M871.189 107.234C872.191 106.345 889.894 108.874 896.251 115.846C904.544 124.96 908.008 133.663 914.615 134.073" stroke="#327BED" stroke-linecap="round" stroke-linejoin="round"/>
<path d="M807.736 227.647C815.118 236.647 830.702 247.788 850.114 244.644" stroke="#327BED" stroke-linecap="round" stroke-linejoin="round"/>
<path d="M799.762 231.087C809.604 253.097 848.155 269.387 865.835 241.727" stroke="#FF523B" stroke-linecap="round" stroke-linejoin="round"/>
<path d="M830.041 263.736C845.192 267.951 857.86 263.212 862.166 259.521" stroke="white" stroke-linecap="round" stroke-linejoin="round"/>
<path d="M766.862 258.131C783.198 275.47 787.846 292.626 784.405 305.749" stroke="white" stroke-linecap="round" stroke-linejoin="round"/>
<path d="M928.581 300.737C937.695 286.429 943.231 277.953 943.231 277.953" stroke="white" stroke-linecap="round" stroke-linejoin="round"/>
<path d="M932.455 305.863C935.83 303.732 939.448 302.011 943.232 300.737" stroke="white" stroke-linecap="round" stroke-linejoin="round"/>
<path d="M812.042 424.362C818.376 426.64 823.685 426.39 856.334 398.799" stroke="white" stroke-linecap="round" stroke-linejoin="round"/>
<path d="M765.586 336.895C772.944 336.206 780.245 335.003 787.435 333.295" stroke="#FF523B" stroke-linecap="round" stroke-linejoin="round"/>
<path d="M760.231 343.32C765.791 345.598 773.15 347.877 773.15 347.877" stroke="#FF523B" stroke-linecap="round" stroke-linejoin="round"/>
<path d="M791.081 449.607C809.308 457.057 822.978 458.948 836.284 455.257C851.389 451.111 901.833 425.228 901.833 425.228" stroke="white" stroke-linecap="round" stroke-linejoin="round"/>
<path d="M777.912 462.069C782.974 466.055 788.46 469.47 794.271 472.254" stroke="white" stroke-linecap="round" stroke-linejoin="round"/>
<path d="M882.809 482.438C890.789 486.173 899.432 488.287 908.236 488.658" stroke="white" stroke-linecap="round" stroke-linejoin="round"/>
<path d="M861.984 495.767C877.158 499.344 898.302 498.501 898.302 498.501" stroke="white" stroke-linecap="round" stroke-linejoin="round"/>
<path d="M730.704 359.725C716.783 372.962 703.363 386.268 698.806 392.807C698.404 393.336 698.039 393.891 697.713 394.47" stroke="#327BED" stroke-linecap="round" stroke-linejoin="round"/>
<path d="M675.657 363.461C682.87 370.402 688.268 379.008 691.378 388.523" stroke="#327BED" stroke-linecap="round" stroke-linejoin="round"/>
<path d="M567.047 511.943C567.047 511.943 568.369 531.651 573.518 545.617C574.931 549.491 584.021 557.237 586.983 559.629C589.945 562.022 591.289 558.08 592.087 552.43C592.884 546.779 588.464 543.476 584.295 529.19C579.533 512.945 593.727 499.822 599.378 498.591C605.028 497.361 603.684 514.381 600.448 520.304C597.213 526.228 597.487 536.458 600.448 538.532C603.41 540.605 607.284 534.225 610.701 527.14C614.119 520.054 633.599 487.268 633.599 487.268C633.599 487.268 637.358 482.962 648.955 467.332C659.55 453.001 682.174 423.769 689.715 408.208C690.357 406.937 690.92 405.629 691.401 404.289" stroke="#327BED" stroke-linecap="round" stroke-linejoin="round"/>
<path d="M558.8 523.882C561.831 539.215 565.818 550.106 567.025 551.518C568.233 552.931 577.87 566.146 577.87 566.146" stroke="#327BED" stroke-linecap="round" stroke-linejoin="round"/>
<path d="M553.697 536.003C555.838 547.395 557.798 554.025 558.868 555.278C559.939 556.531 568.415 565.439 568.415 565.439" stroke="#327BED" stroke-linecap="round" stroke-linejoin="round"/>
<path d="M557.341 565.44C550.506 558.969 547.727 554.754 547.499 549.126C547.271 543.499 547.499 518.391 548.661 517.001C549.823 515.611 554.767 511.374 554.767 509.027C554.767 506.68 554.767 497.065 557.341 495.197C559.916 493.329 592.998 475.033 596.279 473.849C599.56 472.664 611.749 472.299 611.749 472.299" stroke="#327BED" stroke-linecap="round" stroke-linejoin="round"/>
<path d="M685.204 311.468C681.809 316.025 674.86 325.412 667.843 335.277C658.729 347.945 649.616 361.593 647.611 367.79C645.857 372.628 643.857 377.373 641.619 382.007C635.034 396.11 625.306 414.952 619.519 427.574C611.339 445.277 597.076 473.689 596.279 473.917" stroke="#327BED" stroke-linecap="round" stroke-linejoin="round"/>
<path d="M736.331 505.769C733.552 513.014 708.717 558.923 700.515 566.146C692.313 573.368 682.493 596.539 669.552 617.705C656.611 638.872 636.196 670.336 636.196 670.336C648.294 691.366 670.372 710.846 707.008 709.593C710.289 709.479 713.365 709.228 716.236 708.909C737.903 706.334 748.953 698.474 762.419 704.512" stroke="#327BED" stroke-linecap="round" stroke-linejoin="round"/>
<path d="M946.17 690.226C939.079 685.903 931.352 682.72 923.272 680.794C905.797 676.966 894.382 683.232 884.859 687.994C874.776 692.872 864.165 696.572 853.235 699.021C850.349 699.701 847.403 700.098 844.44 700.206C839.328 700.055 834.265 699.173 829.403 697.586L828.104 697.13C828.104 696.31 826.737 689.406 824.983 680.065C820.814 657.896 813.978 622.034 813.978 622.034L807.576 622.627C803.924 627.89 800.54 633.335 797.437 638.94C786.045 658.557 769.641 688.768 766.11 695.581" stroke="#327BED" stroke-linecap="round" stroke-linejoin="round"/>
<path d="M913.362 527.14C916.481 542.203 920.871 556.974 926.485 571.295C929.493 578.609 932.728 593.646 935.804 612.101C941.431 645.57 946.558 690.34 949.109 720.78C949.109 720.962 949.109 721.121 949.109 721.304C949.679 728.139 949.109 745.933 944.735 770.858C944.348 773.137 943.915 775.415 943.459 777.694C943.003 779.972 942.206 783.253 941.181 786.807C940.155 790.361 939.016 794.143 937.649 798.199C937.216 799.543 936.761 800.933 936.282 802.346C935.439 804.897 934.528 807.54 933.594 810.252C919.787 849.85 897.299 904.326 897.299 904.326" stroke="#327BED" stroke-linecap="round" stroke-linejoin="round"/>
<path d="M853.235 699.021C853.235 699.021 864.171 725.177 867.475 735.338C868.881 740.055 869.579 744.953 869.548 749.874C869.408 761.605 868.349 773.306 866.381 784.87C866.085 786.921 865.743 788.994 865.401 791.068C864.422 796.923 863.237 802.87 861.915 808.862C849.589 864.682 824.55 924.581 818.854 949.643" stroke="#327BED" stroke-linecap="round" stroke-linejoin="round"/>
<path d="M921.29 730.531C929.242 730.212 935.279 732.126 931.155 735.088C928.737 736.783 926.12 738.175 923.363 739.234C923.363 739.234 936.874 740.829 940.383 745.591" stroke="#327BED" stroke-linecap="round" stroke-linejoin="round"/>
<path d="M912.176 745.5C915.534 748.396 919.304 750.776 923.363 752.563" stroke="#327BED" stroke-linecap="round" stroke-linejoin="round"/>
<path d="M944.803 770.859C928.819 767.644 912.397 767.235 896.273 769.651C886.474 770.945 876.847 773.314 867.565 776.714" stroke="#327BED" stroke-linecap="round" stroke-linejoin="round"/>
<path d="M941.271 786.807C939.972 791.364 938.309 796.695 936.373 802.46C911.365 800.484 886.203 802.678 861.915 808.953C863.237 802.961 864.421 797.014 865.401 791.159C889.768 782.549 916.079 781.04 941.271 786.807Z" fill="#FF523B" stroke="#FF523B" stroke-linecap="round" stroke-linejoin="round"/>
<path d="M904.271 533.246C885.337 534.955 873.011 540.696 880.12 541.539C887.228 542.382 904.909 541.539 904.271 543.658C903.633 545.777 876.93 553.022 870.209 559.607" stroke="#327BED" stroke-linecap="round" stroke-linejoin="round"/>
<path d="M882.809 573.482C889.371 567.308 902.152 557.533 906.413 557.101" stroke="#327BED" stroke-linecap="round" stroke-linejoin="round"/>
<path d="M784.861 622.65C796.572 616.043 846.377 602.646 864.467 601.78" stroke="#327BED" stroke-linecap="round" stroke-linejoin="round"/>
<path d="M799.966 623.516C811.882 621.807 848.701 620.736 848.701 620.736" stroke="#327BED" stroke-linecap="round" stroke-linejoin="round"/>
<path d="M827.102 631.216C837.97 638.051 847.607 650.583 847.607 650.583" stroke="#327BED" stroke-linecap="round" stroke-linejoin="round"/>
<path d="M773.15 582.504C787.617 584.783 814.548 583.644 814.548 583.644" stroke="#327BED" stroke-linecap="round" stroke-linejoin="round"/>
<path d="M740.523 536.003C749.637 547.007 760.163 547.508 760.163 547.508" stroke="#327BED" stroke-linecap="round" stroke-linejoin="round"/>
<path d="M731.41 539.056C733.689 546.62 738.86 560.609 745.399 566.943" stroke="#327BED" stroke-linecap="round" stroke-linejoin="round"/>
<path d="M734.828 684.873C742.529 675.987 760.14 658.193 760.14 658.193" stroke="#327BED" stroke-linecap="round" stroke-linejoin="round"/>
<path d="M536.426 672.5C553.446 693.211 567.093 709.57 578.234 722.465C581.697 726.521 584.933 730.212 587.963 733.607C595.646 742.489 603.783 750.969 612.342 759.01C615.928 762.408 619.869 765.41 624.098 767.965C628.607 770.528 633.64 772.032 638.816 772.362C653.398 774.025 673.311 763.636 682.106 755.502C682.561 755.092 682.971 754.682 683.359 754.271C684.136 753.489 684.838 752.634 685.455 751.72C693.475 739.439 702.452 730.462 722.889 707.952" stroke="#327BED" stroke-linecap="round" stroke-linejoin="round"/>
<path d="M624.03 707.929C626.924 697.677 641.255 678.31 641.255 678.31" stroke="#327BED" stroke-linecap="round" stroke-linejoin="round"/>
<path d="M636.014 685.761C635.376 685.465 633.007 684.417 629.612 682.731C623.856 679.871 618.266 676.692 612.866 673.207C601.816 666.099 590.355 656.575 587.074 646.254C586.32 643.874 585.312 641.583 584.067 639.419C581.819 635.437 578.65 632.051 574.825 629.546C570.999 627.04 566.629 625.488 562.081 625.019C552.557 624.131 545.494 634.52 539.73 638.94C532.629 644.479 524.284 648.202 515.419 649.785C504.027 652.064 494.185 653.978 482.679 668.013C471.173 682.047 460.784 701.186 470.74 715.107C471.734 716.513 472.847 717.832 474.067 719.048C478.159 723.439 483.692 726.215 489.659 726.872C495.626 727.528 501.63 726.021 506.579 722.625C516.308 715.517 529.135 708.249 541.735 698.976" stroke="#327BED" stroke-linecap="round" stroke-linejoin="round"/>
<path d="M632.641 690.933C632.641 690.933 620.361 688.791 610.359 704.603C600.357 720.415 601.245 738.596 602.931 749.943" stroke="#327BED" stroke-linecap="round" stroke-linejoin="round"/>
<path d="M629.612 682.73C629.612 682.73 615.555 682.047 600.358 697.608C589.649 708.59 588.009 724.949 587.963 733.607C584.933 730.212 581.698 726.521 578.235 722.465C579.663 711.438 583.633 700.893 589.832 691.662C595.701 683.541 603.661 677.164 612.866 673.207C618.266 676.691 623.857 679.871 629.612 682.73Z" fill="#FF523B" stroke="#FF523B" stroke-linecap="round" stroke-linejoin="round"/>
<path d="M546.633 684.872C547.089 673.913 563.858 643.178 580.627 650.15" stroke="#327BED" stroke-linecap="round" stroke-linejoin="round"/>
<path d="M540.026 693.075C531.078 697.944 522.676 703.757 514.964 710.413C511.387 708.353 507.988 705.999 504.802 703.373C504.802 703.373 514.212 682.07 529.477 679.291" stroke="#327BED" stroke-linecap="round" stroke-linejoin="round"/>
<path d="M533.419 684.44C534.911 686.641 536.28 688.923 537.52 691.275" stroke="#327BED" stroke-linecap="round" stroke-linejoin="round"/>
<path d="M522.437 687.857C524.833 690.367 526.893 693.178 528.565 696.219" stroke="#327BED" stroke-linecap="round" stroke-linejoin="round"/>
<path d="M515.168 695.832C517.339 697.778 519.246 699.999 520.842 702.439" stroke="#327BED" stroke-linecap="round" stroke-linejoin="round"/>
<path d="M402.594 631.216C407.356 659.856 430.755 724.835 469.305 758.623" stroke="#327BED" stroke-linecap="round" stroke-linejoin="round"/>
<path d="M394.209 692.026C401.865 718.182 415.148 740.898 418.975 745.318" stroke="#327BED" stroke-linecap="round" stroke-linejoin="round"/>
<path d="M950.795 803.827C967.564 801.776 1000.42 803.827 1000.42 803.827C1016.18 792.776 1036.64 792.936 1032.48 801.184" stroke="#327BED" stroke-linecap="round" stroke-linejoin="round"/>
<path d="M1023.82 805.558C1032.93 798.13 1054.39 793.733 1047.33 806.173" stroke="#327BED" stroke-linecap="round" stroke-linejoin="round"/>
<path d="M1048.74 803.826C1048.74 803.826 1075.08 796.604 1070.71 809.021" stroke="#327BED" stroke-linecap="round" stroke-linejoin="round"/>
<path d="M1090.69 808.953C1132.84 810.366 1260.43 819.183 1308 827.18" stroke="#327BED" stroke-linecap="round" stroke-linejoin="round"/>
<path d="M1018.71 925.036H1041.5" stroke="#327BED" stroke-linecap="round" stroke-linejoin="round"/>
<path d="M1054.71 921.71C1070.23 921.437 1108.73 922.827 1116.75 923.374" stroke="#327BED" stroke-linecap="round" stroke-linejoin="round"/>
<path d="M1054.71 985.847C1073.53 985.095 1116.75 985.847 1116.75 985.847" stroke="#327BED" stroke-linecap="round" stroke-linejoin="round"/>
<path d="M191.275 838.002C261.449 829.595 363.247 826.132 416.607 826.132C469.966 826.132 580.65 820.208 580.65 820.208C580.65 820.208 566.98 814.808 569.554 808.816C572.129 802.824 603.821 818.727 603.821 818.727" stroke="#327BED" stroke-linecap="round" stroke-linejoin="round"/>
<path d="M600.95 817.292C600.95 817.292 594.115 806.993 603.912 804.783C613.709 802.573 621.638 819.069 625.215 813.099C628.792 807.13 631.002 803.416 640.161 813.099" stroke="#327BED" stroke-linecap="round" stroke-linejoin="round"/>
<path d="M647.11 816.016C670.737 813.373 755.629 806.902 799.511 808.953" stroke="#327BED" stroke-linecap="round" stroke-linejoin="round"/>
<path d="M854.078 1007.22C853.563 1006.11 852.72 1005.19 851.663 1004.57C848.792 1002.68 844.554 1002.93 840.271 1004.57C839.386 1004.91 838.525 1005.3 837.696 1005.76C835.049 1007.16 832.648 1008.99 830.588 1011.16" stroke="#327BED" stroke-linecap="round" stroke-linejoin="round"/>
<path d="M847.357 1011.91C852.552 1007.35 870.916 998.127 875.336 1003.98C879.756 1009.84 873.057 1015.69 873.057 1015.69" stroke="#327BED" stroke-linecap="round" stroke-linejoin="round"/>
<path d="M875.631 1012.37C875.631 1012.37 896.137 1004.73 893.585 1015.69C893.585 1015.69 916.574 1012 932.477 1011.14" stroke="#327BED" stroke-linecap="round" stroke-linejoin="round"/>
<path d="M960.729 1014.01H978.956" stroke="#327BED" stroke-linecap="round" stroke-linejoin="round"/>
<path d="M781.307 1024.17C780.829 1018.54 785.864 1015.67 800.582 1020.93C800.582 1020.93 792.335 1012.94 798.555 1011.96C803.362 1011.21 814.503 1020.46 814.503 1020.46" stroke="#327BED" stroke-linecap="round" stroke-linejoin="round"/>
<path d="M625.876 1033.01C635.048 1031.41 644.307 1030.36 653.604 1029.86" stroke="#327BED" stroke-linecap="round" stroke-linejoin="round"/>
<path d="M584.637 986.963C582.358 959.235 591.472 939.117 600.791 931.507" stroke="#327BED" stroke-linecap="round" stroke-linejoin="round"/>
<path d="M541.621 976.984C538.477 963.313 547.887 949.643 551.555 949.643" stroke="#327BED" stroke-linecap="round" stroke-linejoin="round"/>
<path d="M480.332 898.721C505.645 898.448 532.051 898.721 532.051 898.721" stroke="#327BED" stroke-linecap="round" stroke-linejoin="round"/>
<path d="M526.697 887.056C536.95 886.873 547.203 887.056 547.203 887.056" stroke="#327BED" stroke-linecap="round" stroke-linejoin="round"/>
<path d="M552.899 897.127C557.843 896.944 567.321 897.127 567.321 897.127" stroke="#327BED" stroke-linecap="round" stroke-linejoin="round"/>
<path d="M528.132 1026.4C532.438 1022.3 543.033 1022.78 554.903 1029.86C554.903 1029.86 539.57 1016.9 554.903 1016.9C570.237 1016.9 580.581 1030.57 579.965 1029.86" stroke="#327BED" stroke-linecap="round" stroke-linejoin="round"/>
<path d="M427.77 1035.9C439.088 1032.9 450.645 1030.9 462.311 1029.91C462.311 1029.91 447.41 1024.03 449.574 1016.92C451.739 1009.82 470.513 1023.42 470.513 1023.42C470.513 1023.42 464.475 1015.81 470.513 1014.85C476.55 1013.89 483.705 1021.12 483.454 1020.36C481.176 1013.53 489.924 1008.27 504.164 1021.87" stroke="#327BED" stroke-linecap="round" stroke-linejoin="round"/>
<path d="M294.348 966.275C307.608 966.708 315.583 964.726 316.243 960.533C316.904 956.341 345.202 959.873 348.961 959.417C352.72 958.961 354.702 954.587 363.11 958.437C371.517 962.288 414.624 960.511 414.624 960.511" stroke="#327BED" stroke-linecap="round" stroke-linejoin="round"/>
<path d="M424.376 953.676C440.53 954.564 457.549 953.904 457.549 953.904" stroke="#327BED" stroke-linecap="round" stroke-linejoin="round"/>
<path d="M223.969 969.146C232.854 967.984 263.772 971.857 263.772 971.857" stroke="#327BED" stroke-linecap="round" stroke-linejoin="round"/>
<path d="M851.663 1004.57C856.037 1003.26 860.131 1001.16 863.738 998.355C881.965 984.434 891.261 981.449 899.873 980.789C908.485 980.128 943.664 969.83 953.278 953.266C959.43 942.671 961.526 927.019 956.468 916.242C955.041 913.049 952.808 910.281 949.987 908.212C947.167 906.143 943.857 904.843 940.383 904.44C918.123 901.182 889.598 922.553 889.598 922.553" stroke="#327BED" stroke-linecap="round" stroke-linejoin="round"/>
<path d="M837.764 1005.81C831.017 1005.15 824.602 1002.56 819.287 998.355C812.976 992.727 809.33 981.791 814.457 967.847C819.583 953.904 837.537 939.983 849.475 940.643C861.414 941.304 861.733 937.659 867.543 931.53C873.353 925.401 871.029 923.419 885.291 915.467" stroke="#327BED" stroke-linecap="round" stroke-linejoin="round"/>
<path d="M867.543 931.416C867.543 931.416 872.487 919.773 872.647 915.353C872.806 910.933 874.925 906.035 878.115 905.192C881.305 904.349 896.729 900.999 897.846 905.192C898.651 908.77 899.199 912.402 899.486 916.059" stroke="#327BED" stroke-linecap="round" stroke-linejoin="round"/>
<path d="M815.072 992.932C814.822 992.431 822.272 974.91 834.712 970.49C847.152 966.07 859.569 970.08 880.644 949.643" stroke="#327BED" stroke-linecap="round" stroke-linejoin="round"/>
<path d="M887.753 943.97C896.229 936.588 922.111 920.252 931.042 917.359" stroke="#327BED" stroke-linecap="round" stroke-linejoin="round"/>
<path d="M942.912 922.531C946.808 927.771 953.302 939.618 953.302 939.618" stroke="#327BED" stroke-linecap="round" stroke-linejoin="round"/>
<path d="M931.042 929.707C935.758 935.221 944.713 946.431 944.713 946.431" stroke="#327BED" stroke-linecap="round" stroke-linejoin="round"/>
<path d="M919.354 935.403L933.161 951.807" stroke="#327BED" stroke-linecap="round" stroke-linejoin="round"/>
<path d="M911.722 938.069L925.529 957.982" stroke="#327BED" stroke-linecap="round" stroke-linejoin="round"/>
<path d="M905.478 947.41L918.624 963.815" stroke="#327BED" stroke-linecap="round" stroke-linejoin="round"/>
<path d="M891.74 954.337L908.304 972.587" stroke="#327BED" stroke-linecap="round" stroke-linejoin="round"/>
<path d="M874.766 966.981L885.292 977.166" stroke="#327BED" stroke-linecap="round" stroke-linejoin="round"/>
<path d="M860.161 972.062L872.419 984.389" stroke="#327BED" stroke-linecap="round" stroke-linejoin="round"/>
<path d="M851.663 977.166L862.098 988.649" stroke="#327BED" stroke-linecap="round" stroke-linejoin="round"/>
<path d="M841.501 982.908L854.42 995.758" stroke="#327BED" stroke-linecap="round" stroke-linejoin="round"/>
<path d="M830.656 989.332L845.01 1003.34" stroke="#327BED" stroke-linecap="round" stroke-linejoin="round"/>
<path d="M773.15 965.409C773.127 979.346 768.975 992.964 761.218 1004.54C753.461 1016.12 742.447 1025.14 729.566 1030.47C716.686 1035.79 702.517 1037.18 688.849 1034.45C675.181 1031.73 662.627 1025.01 652.772 1015.16C642.917 1005.3 636.203 992.748 633.478 979.08C630.754 965.412 632.141 951.243 637.464 938.363C642.787 925.482 651.807 914.468 663.386 906.711C674.965 898.954 688.583 894.802 702.52 894.779C705.016 894.782 707.51 894.911 709.993 895.167C727.295 897.036 743.298 905.227 754.932 918.169C766.566 931.111 773.013 947.893 773.036 965.295L773.15 965.409Z" stroke="#327BED" stroke-linecap="round" stroke-linejoin="round"/>
<path d="M684.681 908.291L691.699 922.531" stroke="#327BED" stroke-linecap="round" stroke-linejoin="round"/>
<path d="M746.949 910.569L724.575 927.976L700.652 922.553L693.817 906.878C693.817 906.878 703.09 900.248 710.175 895.281C723.655 896.71 736.429 902.021 746.949 910.569Z" fill="#327BED" stroke="#327BED" stroke-linecap="round" stroke-linejoin="round"/>
<path d="M697.622 931.416C696.505 931.689 689.078 946.75 689.078 946.75" stroke="#327BED" stroke-linecap="round" stroke-linejoin="round"/>
<path d="M721.59 936.611L726.625 953.334" stroke="#327BED" stroke-linecap="round" stroke-linejoin="round"/>
<path d="M642.873 927.976L659.026 952.537" stroke="#327BED" stroke-linecap="round" stroke-linejoin="round"/>
<path d="M641.733 986.963C644.253 983.744 646.938 980.656 649.776 977.713" stroke="#327BED" stroke-linecap="round" stroke-linejoin="round"/>
<path d="M754.854 949.643C759.092 945.656 768.115 939.071 768.115 939.071" stroke="#327BED" stroke-linecap="round" stroke-linejoin="round"/>
<path d="M746.948 993.023L759.411 1007.22" stroke="#327BED" stroke-linecap="round" stroke-linejoin="round"/>
<path d="M720.018 1018.88C720.269 1018.27 731.41 998.583 731.41 998.583" stroke="#327BED" stroke-linecap="round" stroke-linejoin="round"/>
<path d="M716.988 975.001C717.147 974.5 729.018 956.455 729.018 956.455L750.731 955.293L761.485 979.262L747.541 993.798L732.959 994.641L716.988 975.001Z" fill="#327BED" stroke="#327BED" stroke-linecap="round" stroke-linejoin="round"/>
<path d="M710.722 976.984L691.698 974.911" stroke="#327BED" stroke-linecap="round" stroke-linejoin="round"/>
<path d="M685.319 954.336L695.435 975.32L674.063 994.55L648.386 979.194L657.181 949.734L685.319 954.336Z" fill="#327BED" stroke="#327BED" stroke-linecap="round" stroke-linejoin="round"/>
<path d="M674.063 994.55C673.835 995.53 680.898 1012.78 680.898 1012.78L674.063 1019.93" stroke="#327BED" stroke-linecap="round" stroke-linejoin="round"/>
<path d="M725.578 1032.1C709.004 1037.76 690.922 1037.08 674.815 1030.21C679.144 1024.42 686.64 1015.69 686.64 1015.69C686.64 1015.69 695.275 1022.53 716.988 1019.89L725.578 1032.1Z" fill="#327BED" stroke="#327BED" stroke-linecap="round" stroke-linejoin="round"/>
<path d="M967.564 355.395C966.403 334.89 973.01 319.83 979.549 302.377C982.944 293.264 982.26 281.302 981.007 272.553C980.463 268.611 979.703 264.701 978.729 260.843" stroke="#FF523B" stroke-linecap="round" stroke-linejoin="round"/>
<path d="M926.439 322.518C924.176 308.575 922.882 294.491 922.566 280.368" stroke="white" stroke-linecap="round" stroke-linejoin="round"/>
<path d="M753.215 354.097C753.215 354.097 752.668 357.674 757.316 370.82C761.964 383.967 764.151 409.553 761.986 417.983C759.822 426.413 759.503 433.59 762.807 437.987C766.11 442.384 766.634 447.579 761.986 449.766C757.338 451.954 751.005 449.22 753.215 457.718C755.425 466.216 750.458 465.943 748.544 468.404C747.678 469.52 743.987 475.603 739.977 481.96C735.193 489.752 730.203 497.909 730.203 497.909C732.253 500.688 734.281 503.286 736.332 505.723C739.319 509.324 742.506 512.755 745.878 515.999C768.024 537.37 787.96 539.58 802.314 541.927C819.971 544.843 819.971 537.37 832.069 536.117C844.632 534.98 856.993 532.216 868.842 527.892C878.36 524.918 888.377 523.88 898.302 524.839C900.74 524.998 902.859 525.158 904.18 525.226C907.262 525.6 910.309 526.217 913.294 527.072C915.321 527.55 917.417 528.052 919.4 528.416C923.41 529.122 926.918 529.259 928.377 527.664C929.753 526.066 930.555 524.053 930.655 521.945C931.521 512.217 923.022 497.407 922.043 493.283C920.835 488.203 927.123 487.975 928.331 481.686C929.538 475.398 916.939 466.193 922.043 440.06C925.893 420.307 927.374 369.134 927.146 340.86" stroke="#FF523B" stroke-linecap="round" stroke-linejoin="round"/>
<path d="M927.168 340.928C928.399 340.7 953.894 350.246 967.541 355.395L971.688 356.967L976.017 358.608" stroke="#FF523B" stroke-linecap="round" stroke-linejoin="round"/>
<path d="M887.799 325.207L890.419 346.669C890.441 346.72 890.453 346.774 890.453 346.829C890.453 346.884 890.441 346.938 890.419 346.988C890.381 347.028 890.335 347.06 890.284 347.079C890.232 347.099 890.177 347.107 890.122 347.102H884.723C884.606 347.102 884.494 347.062 884.404 346.988C884.354 346.95 884.312 346.902 884.281 346.847C884.249 346.792 884.229 346.732 884.221 346.669L882.239 330.447H880.622C880.558 330.448 880.496 330.437 880.437 330.413C880.378 330.39 880.325 330.355 880.28 330.311C880.189 330.227 880.133 330.114 880.12 329.992L879.528 325.207C879.505 325.157 879.494 325.103 879.494 325.048C879.494 324.993 879.505 324.938 879.528 324.888C879.569 324.846 879.619 324.814 879.674 324.794C879.73 324.775 879.789 324.768 879.847 324.774H887.32C887.437 324.77 887.551 324.811 887.639 324.888C887.729 324.971 887.786 325.085 887.799 325.207Z" fill="white"/>
<path d="M896.342 325.184C897.431 324.67 898.623 324.413 899.828 324.433C901.089 324.427 902.338 324.683 903.496 325.184C904.688 325.734 905.763 326.507 906.663 327.463C907.687 328.526 908.506 329.77 909.078 331.131C909.771 332.734 910.223 334.431 910.422 336.166C910.686 337.834 910.686 339.533 910.422 341.201C910.197 342.524 909.675 343.778 908.895 344.87C908.214 345.834 907.306 346.616 906.253 347.148C905.164 347.662 903.971 347.92 902.767 347.9C901.505 347.906 900.256 347.65 899.098 347.148C897.906 346.599 896.831 345.826 895.931 344.87C894.907 343.806 894.088 342.563 893.516 341.201C892.824 339.598 892.371 337.902 892.172 336.166C891.907 334.498 891.907 332.799 892.172 331.131C892.397 329.809 892.919 328.554 893.699 327.463C894.38 326.499 895.288 325.716 896.342 325.184ZM899.759 340.062C899.971 340.462 900.28 340.801 900.659 341.048C901.037 341.296 901.473 341.442 901.924 341.475C902.338 341.462 902.737 341.319 903.065 341.065C903.392 340.811 903.631 340.46 903.746 340.062C904.184 338.788 904.286 337.423 904.043 336.098C903.929 334.696 903.492 333.339 902.767 332.134C902.555 331.734 902.246 331.394 901.867 331.147C901.488 330.9 901.053 330.753 900.602 330.721C900.188 330.733 899.788 330.877 899.461 331.131C899.133 331.384 898.895 331.736 898.779 332.134C898.341 333.407 898.239 334.773 898.483 336.098C898.6 337.492 899.037 338.841 899.759 340.04V340.062Z" fill="white"/>
<path d="M979.321 352.046C976.564 334.343 983.604 327.622 987.568 318.463C991.533 309.304 995.93 287.819 989.482 265.673L978.705 260.797C972.782 258.154 966.516 255.375 960.319 252.458C934.983 240.611 916.87 230.859 888.527 224.571" stroke="#FF523B" stroke-linecap="round" stroke-linejoin="round"/>
<path d="M724.301 358.084C726.396 358.775 728.535 359.323 730.704 359.725V359.725C734.349 356.285 738.04 352.89 741.617 349.495C730.954 349.13 715.256 345.257 711.269 335.825C708.684 330.709 705.411 325.971 701.54 321.744C697.143 316.777 697.098 308.074 697.462 304.36C697.683 298.266 696.53 292.2 694.09 286.612L693.839 286.315C686.457 292.649 681.536 296.978 681.536 296.978C683.572 301.555 684.797 306.45 685.159 311.446C685.364 318.555 692.381 325.321 695.093 330.06C697.804 334.799 694.979 341.452 707.851 350.156C712.851 353.511 718.296 356.15 724.028 357.993H724.256" stroke="#FF523B" stroke-linecap="round" stroke-linejoin="round"/>
<path d="M842.025 210.559C847.927 210.559 852.711 205.775 852.711 199.873C852.711 193.972 847.927 189.188 842.025 189.188C836.124 189.188 831.34 193.972 831.34 199.873C831.34 205.775 836.124 210.559 842.025 210.559Z" fill="#E3F0FF"/>
<path d="M570.898 713.876C570.67 714.582 554.379 694.92 550.256 687.857C550.096 683.779 566.455 652.382 576.616 656.483C586.778 660.585 584.135 656.985 584.135 656.985L600.653 673.207C600.653 673.207 580.535 683.072 570.898 713.876Z" fill="#327BED"/>
</svg>
